<svg width="24" height="24" viewBox="0 0 24 24" fill="none" xmlns="http://www.w3.org/2000/svg">
<path d="M12 21.0004L10.55 19.7004C7.93333 17.3671 5.854 15.3377 4.312 13.6124C2.77067 11.8877 2 10.0671 2 8.15039C2 6.58372 2.525 5.27539 3.575 4.22539C4.625 3.17539 5.93333 2.65039 7.5 2.65039C8.38333 2.65039 9.21667 2.83772 10 3.21239C10.7833 3.58772 11.45 4.10039 12 4.75039C12.55 4.10039 13.2167 3.58772 14 3.21239C14.7833 2.83772 15.6167 2.65039 16.5 2.65039C18.0667 2.65039 19.375 3.17539 20.425 4.22539C21.475 5.27539 22 6.58372 22 8.15039C22 10.0671 21.2293 11.8877 19.688 13.6124C18.146 15.3377 16.0667 17.3671 13.45 19.7004L12 21.0004ZM12 18.3004C14.3833 16.1337 16.3127 14.2671 17.788 12.7004C19.2627 11.1337 20 9.61706 20 8.15039C20 7.15039 19.6667 6.31706 19 5.65039C18.3333 4.98372 17.5 4.65039 16.5 4.65039C15.7167 4.65039 14.9917 4.87106 14.325 5.31239C13.6583 5.75439 13.2 6.31706 12.95 7.00039H11.05C10.8 6.31706 10.3417 5.75439 9.675 5.31239C9.00833 4.87106 8.28333 4.65039 7.5 4.65039C6.5 4.65039 5.66667 4.98372 5 5.65039C4.33333 6.31706 4 7.15039 4 8.15039C4 9.61706 4.73767 11.1337 6.213 12.7004C7.68767 14.2671 9.61667 16.1337 12 18.3004Z" fill="black"/>
</svg>
