<svg width="149" height="19" viewBox="0 0 149 19" fill="none" xmlns="http://www.w3.org/2000/svg">
<path d="M2.04 3.28802C1.944 2.98402 1.808 2.75202 1.632 2.59202C1.456 2.41602 1.272 2.29602 1.08 2.23202C0.888 2.16802 0.712 2.13602 0.552 2.13602H0V0.864023H7.92V2.13602H6.816C6.592 2.13602 6.376 2.19202 6.168 2.30402C5.976 2.41602 5.88 2.62402 5.88 2.92802C5.88 3.02402 5.888 3.13602 5.904 3.26402C5.936 3.39202 5.968 3.52002 6 3.64802C6.032 3.76002 6.064 3.86402 6.096 3.96002L8.544 11.352C8.608 11.528 8.672 11.744 8.736 12C8.816 12.24 8.888 12.504 8.952 12.792C9.016 13.064 9.072 13.336 9.12 13.608C9.184 13.864 9.224 14.104 9.24 14.328C9.288 14.056 9.352 13.752 9.432 13.416C9.512 13.08 9.6 12.736 9.696 12.384C9.808 12.032 9.912 11.712 10.008 11.424L12.48 4.12802C12.528 4.01602 12.568 3.88802 12.6 3.74402C12.648 3.58402 12.688 3.43202 12.72 3.28802C12.752 3.14402 12.768 3.03202 12.768 2.95202C12.768 2.68002 12.68 2.48002 12.504 2.35202C12.328 2.20802 12.096 2.13602 11.808 2.13602H10.56V0.864023H16.752V2.13602H15.6C15.456 2.13602 15.328 2.18402 15.216 2.28002C15.104 2.36002 14.992 2.52802 14.88 2.78402C14.768 3.02402 14.624 3.39202 14.448 3.88802L9.552 18H7.152L2.04 3.28802Z" fill="black"/>
<path d="M19.3498 18V16.728H20.3578C20.5818 16.728 20.7818 16.696 20.9578 16.632C21.1498 16.568 21.3018 16.432 21.4138 16.224C21.5258 16.016 21.5818 15.704 21.5818 15.288V3.69602C21.5818 3.23202 21.5258 2.89602 21.4138 2.68802C21.3178 2.46402 21.1738 2.32002 20.9818 2.25602C20.8058 2.17602 20.5978 2.13602 20.3578 2.13602H19.3498V0.864023H32.6698L32.7658 5.28002H31.0858L30.9658 4.15202C30.9338 3.75202 30.8538 3.42402 30.7258 3.16802C30.6138 2.89602 30.4538 2.68802 30.2458 2.54402C30.0378 2.40002 29.7658 2.32802 29.4298 2.32802H25.3978V8.32802H31.0858V9.76802H25.3978V16.536H30.1978C30.5178 16.536 30.7818 16.456 30.9898 16.296C31.1978 16.136 31.3578 15.92 31.4698 15.648C31.5978 15.376 31.6858 15.064 31.7338 14.712L31.9258 13.584H33.5818L33.4138 18H19.3498Z" fill="black"/>
<path d="M42.6135 18.24C41.5415 18.24 40.6455 18.144 39.9255 17.952C39.2055 17.744 38.6295 17.48 38.1975 17.16C37.7655 16.824 37.4535 16.456 37.2615 16.056C37.0855 15.656 36.9975 15.264 36.9975 14.88C36.9975 14.336 37.1255 13.904 37.3815 13.584C37.6375 13.248 37.9735 13.008 38.3895 12.864C38.8055 12.72 39.2455 12.648 39.7095 12.648C39.7095 13.56 39.8455 14.328 40.1175 14.952C40.4055 15.56 40.7975 16.024 41.2935 16.344C41.7895 16.648 42.3575 16.8 42.9975 16.8C43.9415 16.8 44.6695 16.552 45.1815 16.056C45.7095 15.56 45.9735 14.944 45.9735 14.208C45.9735 13.664 45.8215 13.2 45.5175 12.816C45.2295 12.416 44.7895 12.056 44.1975 11.736C43.6055 11.4 42.8615 11.048 41.9655 10.68C41.1335 10.344 40.4295 9.99202 39.8535 9.62402C39.2775 9.25602 38.8135 8.86402 38.4615 8.44802C38.1095 8.01602 37.8535 7.56002 37.6935 7.08002C37.5495 6.58402 37.4775 6.04002 37.4775 5.44802C37.4775 4.47202 37.7335 3.62402 38.2455 2.90402C38.7575 2.18402 39.4535 1.62402 40.3335 1.22402C41.2295 0.824023 42.2375 0.624023 43.3575 0.624023C44.5415 0.624023 45.5095 0.752024 46.2615 1.00802C47.0135 1.24802 47.5655 1.57602 47.9175 1.99202C48.2855 2.40802 48.4695 2.88002 48.4695 3.40802C48.4695 3.96802 48.2215 4.44002 47.7255 4.82402C47.2455 5.20802 46.5095 5.40002 45.5175 5.40002C45.5175 4.95202 45.4295 4.47202 45.2535 3.96002C45.0935 3.44802 44.8295 3.00802 44.4615 2.64002C44.0935 2.27202 43.5975 2.08802 42.9735 2.08802C42.5415 2.08802 42.1415 2.17602 41.7735 2.35202C41.4215 2.51202 41.1335 2.76002 40.9095 3.09602C40.7015 3.41602 40.5975 3.81602 40.5975 4.29602C40.5975 4.74402 40.7015 5.16002 40.9095 5.54402C41.1175 5.92802 41.5095 6.31202 42.0855 6.69602C42.6615 7.06402 43.4855 7.46402 44.5575 7.89602C45.6615 8.34402 46.5495 8.80802 47.2215 9.28802C47.8935 9.76802 48.3815 10.312 48.6855 10.92C48.9895 11.512 49.1415 12.2 49.1415 12.984C49.1415 14.008 48.8695 14.92 48.3255 15.72C47.7975 16.504 47.0455 17.12 46.0695 17.568C45.0935 18.016 43.9415 18.24 42.6135 18.24Z" fill="black"/>
<path d="M55.4872 18V16.728H56.4952C56.7352 16.728 56.9432 16.696 57.1192 16.632C57.3112 16.552 57.4552 16.4 57.5512 16.176C57.6632 15.952 57.7192 15.616 57.7192 15.168V2.32802H55.7992C55.3192 2.32802 54.9432 2.40002 54.6712 2.54402C54.3992 2.67202 54.1992 2.86402 54.0712 3.12002C53.9432 3.37602 53.8552 3.68002 53.8072 4.03202L53.6392 5.52002H52.0312L52.1512 0.864023H67.1032L67.2233 5.52002H65.6152L65.4473 4.03202C65.4153 3.68002 65.3273 3.37602 65.1833 3.12002C65.0553 2.86402 64.8553 2.67202 64.5833 2.54402C64.3113 2.40002 63.9352 2.32802 63.4552 2.32802H61.5352V15.168C61.5352 15.616 61.5832 15.952 61.6792 16.176C61.7912 16.4 61.9433 16.552 62.1353 16.632C62.3273 16.696 62.5352 16.728 62.7592 16.728H63.7673V18H55.4872Z" fill="black"/>
<path d="M70.0629 18V16.728H71.0709C71.2949 16.728 71.4949 16.696 71.6709 16.632C71.8629 16.568 72.0149 16.432 72.1269 16.224C72.2389 16.016 72.2949 15.704 72.2949 15.288V3.60002C72.2949 3.16802 72.2389 2.84802 72.1269 2.64002C72.0149 2.43202 71.8629 2.29602 71.6709 2.23202C71.4949 2.16802 71.2949 2.13602 71.0709 2.13602H70.0629V0.864023H76.9749L80.9589 12.456L84.7749 0.864023H91.5669V2.13602H90.5589C90.3349 2.13602 90.1269 2.17602 89.9349 2.25602C89.7429 2.32002 89.5909 2.46402 89.4789 2.68802C89.3829 2.89602 89.3349 3.23202 89.3349 3.69602V15.168C89.3349 15.616 89.3829 15.952 89.4789 16.176C89.5909 16.4 89.7429 16.552 89.9349 16.632C90.1269 16.696 90.3349 16.728 90.5589 16.728H91.5669V18H83.8869V16.728H84.1269C84.4629 16.728 84.7429 16.696 84.9669 16.632C85.1909 16.568 85.3589 16.44 85.4709 16.248C85.5829 16.056 85.6389 15.768 85.6389 15.384V3.24002L80.7909 18H79.1589L74.0949 3.24002V15.168C74.0949 15.616 74.1589 15.952 74.2869 16.176C74.4309 16.4 74.6389 16.552 74.9109 16.632C75.1829 16.696 75.5029 16.728 75.8709 16.728H76.0149V18H70.0629Z" fill="black"/>
<path d="M94.8345 18V16.728H95.8425C96.0665 16.728 96.2665 16.696 96.4425 16.632C96.6345 16.568 96.7865 16.432 96.8985 16.224C97.0105 16.016 97.0665 15.704 97.0665 15.288V3.69602C97.0665 3.23202 97.0105 2.89602 96.8985 2.68802C96.8025 2.46402 96.6585 2.32002 96.4665 2.25602C96.2905 2.17602 96.0825 2.13602 95.8425 2.13602H94.8345V0.864023H108.154L108.25 5.28002H106.57L106.451 4.15202C106.419 3.75202 106.339 3.42402 106.211 3.16802C106.099 2.89602 105.938 2.68802 105.73 2.54402C105.522 2.40002 105.25 2.32802 104.914 2.32802H100.882V8.32802H106.57V9.76802H100.882V16.536H105.682C106.002 16.536 106.267 16.456 106.475 16.296C106.683 16.136 106.842 15.92 106.954 15.648C107.082 15.376 107.17 15.064 107.218 14.712L107.41 13.584H109.066L108.898 18H94.8345Z" fill="black"/>
<path d="M112.434 18V16.728H113.442C113.666 16.728 113.866 16.696 114.042 16.632C114.234 16.552 114.386 16.4 114.498 16.176C114.61 15.952 114.666 15.616 114.666 15.168V3.60002C114.666 3.16802 114.61 2.84802 114.498 2.64002C114.386 2.43202 114.234 2.29602 114.042 2.23202C113.866 2.16802 113.666 2.13602 113.442 2.13602H112.434V0.864023H117.762L126.234 12.84V3.60002C126.234 3.16802 126.178 2.84802 126.066 2.64002C125.954 2.43202 125.802 2.29602 125.61 2.23202C125.434 2.16802 125.234 2.13602 125.01 2.13602H124.002V0.864023H130.266V2.13602H129.258C129.034 2.13602 128.826 2.17602 128.634 2.25602C128.458 2.32002 128.314 2.46402 128.202 2.68802C128.09 2.89602 128.034 3.23202 128.034 3.69602V18H125.826L116.466 4.77602V15.168C116.466 15.616 116.522 15.952 116.634 16.176C116.746 16.4 116.89 16.552 117.066 16.632C117.258 16.696 117.466 16.728 117.69 16.728H118.698V18H112.434Z" fill="black"/>
<path d="M136.292 18V16.728H137.3C137.54 16.728 137.748 16.696 137.924 16.632C138.116 16.552 138.26 16.4 138.356 16.176C138.468 15.952 138.524 15.616 138.524 15.168V2.32802H136.604C136.124 2.32802 135.748 2.40002 135.476 2.54402C135.204 2.67202 135.004 2.86402 134.876 3.12002C134.748 3.37602 134.66 3.68002 134.612 4.03202L134.444 5.52002H132.836L132.956 0.864023H147.908L148.028 5.52002H146.42L146.252 4.03202C146.22 3.68002 146.132 3.37602 145.988 3.12002C145.86 2.86402 145.66 2.67202 145.388 2.54402C145.116 2.40002 144.74 2.32802 144.26 2.32802H142.34V15.168C142.34 15.616 142.388 15.952 142.484 16.176C142.596 16.4 142.748 16.552 142.94 16.632C143.132 16.696 143.34 16.728 143.564 16.728H144.572V18H136.292Z" fill="black"/>
</svg>
